<?xml version="1.0" encoding="UTF-8" standalone="no"?>
<svg
   xmlns:dc="http://purl.org/dc/elements/1.1/"
   xmlns:cc="http://creativecommons.org/ns#"
   xmlns:rdf="http://www.w3.org/1999/02/22-rdf-syntax-ns#"
   xmlns:svg="http://www.w3.org/2000/svg"
   xmlns="http://www.w3.org/2000/svg"
   xmlns:sodipodi="http://sodipodi.sourceforge.net/DTD/sodipodi-0.dtd"
   xmlns:inkscape="http://www.inkscape.org/namespaces/inkscape"
   width="60.099949mm"
   height="30.579794mm"
   viewBox="0 0 60.099948 30.579794"
   version="1.1"
   id="svg8"
   inkscape:version="1.0.2-2 (e86c870879, 2021-01-15)"
   sodipodi:docname="DSI2598+_pcb.svg">
  <defs
     id="defs2" />
  <sodipodi:namedview
     id="base"
     pagecolor="#8cffff"
     bordercolor="#666666"
     borderopacity="1.0"
     inkscape:pageopacity="0"
     inkscape:pageshadow="2"
     inkscape:zoom="2.6684744"
     inkscape:cx="93.807246"
     inkscape:cy="113.9227"
     inkscape:document-units="mm"
     inkscape:current-layer="copper0"
     inkscape:document-rotation="0"
     showgrid="true"
     objecttolerance="19.3"
     gridtolerance="12.9"
     inkscape:snap-grids="false"
     inkscape:snap-to-guides="true"
     inkscape:snap-object-midpoints="true"
     inkscape:snap-others="true"
     inkscape:window-width="1920"
     inkscape:window-height="1017"
     inkscape:window-x="-8"
     inkscape:window-y="-8"
     inkscape:window-maximized="1"
     inkscape:pagecheckerboard="false"
     fit-margin-top="0"
     fit-margin-left="0"
     fit-margin-right="0"
     fit-margin-bottom="0">
    <inkscape:grid
       type="xygrid"
       id="grid1269"
       units="mm"
       spacingx="2.54"
       spacingy="2.54"
       originx="-153.75944"
       originy="-51.128782" />
  </sodipodi:namedview>
  <metadata
     id="metadata5">
    <rdf:RDF>
      <cc:Work
         rdf:about="">
        <dc:format>image/svg+xml</dc:format>
        <dc:type
           rdf:resource="http://purl.org/dc/dcmitype/StillImage" />
        <dc:title></dc:title>
      </cc:Work>
    </rdf:RDF>
  </metadata>
  <g
     inkscape:label="Layer 1"
     inkscape:groupmode="layer"
     id="layer1"
     transform="translate(-153.75944,-51.128784)"
     style="display:inline">
    <g
       inkscape:groupmode="layer"
       id="silkscreen"
       inkscape:label="Layer 4">
      <path
         id="rect1183"
         style="display:inline;fill:none;fill-opacity:0.995169;stroke:#000000;stroke-width:0.1;stroke-linejoin:bevel;stroke-miterlimit:4;stroke-dasharray:none;stroke-dashoffset:0;stroke-opacity:1;paint-order:markers fill stroke"
         d="m 153.80944,51.178784 v 30.479793 h 4.6607 a 0.85000001,0.85000001 0 0 1 0.61081,-0.25993 0.85000001,0.85000001 0 0 1 0.61185,0.25993 h 1.31723 a 0.85000001,0.85000001 0 0 1 0.61134,-0.25993 0.85000001,0.85000001 0 0 1 0.61133,0.25993 h 1.31723 a 0.85000001,0.85000001 0 0 1 0.61133,-0.25993 0.85000001,0.85000001 0 0 1 0.61133,0.25993 h 1.31724 a 0.85000001,0.85000001 0 0 1 0.61133,-0.25993 0.85000001,0.85000001 0 0 1 0.61185,0.25993 h 1.31671 a 0.85000001,0.85000001 0 0 1 0.61134,-0.25993 0.85000001,0.85000001 0 0 1 0.61184,0.25993 h 1.31672 a 0.85000001,0.85000001 0 0 1 0.61133,-0.25993 0.85000001,0.85000001 0 0 1 0.61185,0.25993 h 1.31672 a 0.85000001,0.85000001 0 0 1 0.61133,-0.25993 0.85000001,0.85000001 0 0 1 0.61185,0.25993 h 1.31723 a 0.85000001,0.85000001 0 0 1 0.61082,-0.25993 0.85000001,0.85000001 0 0 1 0.61184,0.25993 h 1.31724 a 0.85000001,0.85000001 0 0 1 0.61133,-0.25993 0.85000001,0.85000001 0 0 1 0.61133,0.25993 h 1.31723 a 0.85000001,0.85000001 0 0 1 0.61134,-0.25993 0.85000001,0.85000001 0 0 1 0.61184,0.25993 h 1.31672 a 0.85000001,0.85000001 0 0 1 0.61133,-0.25993 0.85000001,0.85000001 0 0 1 0.61185,0.25993 h 1.31672 a 0.85000001,0.85000001 0 0 1 0.61133,-0.25993 0.85000001,0.85000001 0 0 1 0.61185,0.25993 h 1.31671 a 0.85000001,0.85000001 0 0 1 0.61134,-0.25993 0.85000001,0.85000001 0 0 1 0.61185,0.25993 h 1.31723 a 0.85000001,0.85000001 0 0 1 0.61081,-0.25993 0.85000001,0.85000001 0 0 1 0.61185,0.25993 h 1.31723 a 0.85000001,0.85000001 0 0 1 0.61134,-0.25993 0.85000001,0.85000001 0 0 1 0.61133,0.25993 h 1.31723 a 0.85000001,0.85000001 0 0 1 0.61133,-0.25993 0.85000001,0.85000001 0 0 1 0.61133,0.25993 h 1.31724 a 0.85000001,0.85000001 0 0 1 0.61133,-0.25993 0.85000001,0.85000001 0 0 1 0.61185,0.25993 h 1.31671 a 0.85000001,0.85000001 0 0 1 0.61134,-0.25993 0.85000001,0.85000001 0 0 1 0.61184,0.25993 h 1.31672 a 0.85000001,0.85000001 0 0 1 0.61133,-0.25993 0.85000001,0.85000001 0 0 1 0.61185,0.25993 h 1.31672 a 0.85000001,0.85000001 0 0 1 0.61133,-0.25993 0.85000001,0.85000001 0 0 1 0.61185,0.25993 h 5.857 V 51.178784 h -5.80429 a 0.85000001,0.85000001 0 0 1 -0.66456,0.319877 0.85000001,0.85000001 0 0 1 -0.66404,-0.319877 h -1.2113 a 0.85000001,0.85000001 0 0 1 -0.66456,0.319877 0.85000001,0.85000001 0 0 1 -0.66404,-0.319877 h -1.2113 a 0.85000001,0.85000001 0 0 1 -0.66455,0.319877 0.85000001,0.85000001 0 0 1 -0.66456,-0.319877 h -1.2113 a 0.85000001,0.85000001 0 0 1 -0.66404,0.319877 0.85000001,0.85000001 0 0 1 -0.66456,-0.319877 h -1.2113 a 0.85000001,0.85000001 0 0 1 -0.66404,0.319877 0.85000001,0.85000001 0 0 1 -0.66456,-0.319877 h -1.21129 a 0.85000001,0.85000001 0 0 1 -0.66404,0.319877 0.85000001,0.85000001 0 0 1 -0.66456,-0.319877 h -1.2113 a 0.85000001,0.85000001 0 0 1 -0.66456,0.319877 0.85000001,0.85000001 0 0 1 -0.66404,-0.319877 h -1.2113 a 0.85000001,0.85000001 0 0 1 -0.66455,0.319877 0.85000001,0.85000001 0 0 1 -0.66405,-0.319877 h -1.21129 a 0.85000001,0.85000001 0 0 1 -0.66456,0.319877 0.85000001,0.85000001 0 0 1 -0.66404,-0.319877 h -1.2113 a 0.85000001,0.85000001 0 0 1 -0.66456,0.319877 0.85000001,0.85000001 0 0 1 -0.66456,-0.319877 h -1.21129 a 0.85000001,0.85000001 0 0 1 -0.66404,0.319877 0.85000001,0.85000001 0 0 1 -0.66456,-0.319877 h -1.2113 a 0.85000001,0.85000001 0 0 1 -0.66404,0.319877 0.85000001,0.85000001 0 0 1 -0.66456,-0.319877 h -1.2113 a 0.85000001,0.85000001 0 0 1 -0.66455,0.319877 0.85000001,0.85000001 0 0 1 -0.66405,-0.319877 h -1.21129 a 0.85000001,0.85000001 0 0 1 -0.66456,0.319877 0.85000001,0.85000001 0 0 1 -0.66404,-0.319877 h -1.2113 a 0.85000001,0.85000001 0 0 1 -0.66456,0.319877 0.85000001,0.85000001 0 0 1 -0.66404,-0.319877 h -1.2113 a 0.85000001,0.85000001 0 0 1 -0.66455,0.319877 0.85000001,0.85000001 0 0 1 -0.66456,-0.319877 h -1.2113 a 0.85000001,0.85000001 0 0 1 -0.66404,0.319877 0.85000001,0.85000001 0 0 1 -0.66456,-0.319877 h -1.2113 a 0.85000001,0.85000001 0 0 1 -0.66404,0.319877 0.85000001,0.85000001 0 0 1 -0.66456,-0.319877 h -1.21129 a 0.85000001,0.85000001 0 0 1 -0.66404,0.319877 0.85000001,0.85000001 0 0 1 -0.66456,-0.319877 h -1.2113 a 0.85000001,0.85000001 0 0 1 -0.66456,0.319877 0.85000001,0.85000001 0 0 1 -0.66404,-0.319877 z" />
    </g>
    <g
       inkscape:groupmode="layer"
       id="copper1"
       inkscape:label="Layer 2">
      <g
         inkscape:groupmode="layer"
         id="copper0"
         inkscape:label="Layer 3">
        <ellipse
           style="fill:#f7bd13;fill-opacity:1;stroke-width:0.067907;paint-order:markers fill stroke"
           id="circle1200-1"
           cx="159.00938"
           cy="52.448814"
           rx="0.84999317"
           ry="0.85000002" />
        <ellipse
           style="fill:#f7bd13;fill-opacity:1;stroke-width:0.067907;paint-order:markers fill stroke"
           id="circle1207"
           cx="161.54935"
           cy="52.448814"
           rx="0.84999317"
           ry="0.85000002" />
        <ellipse
           style="fill:#f7bd13;fill-opacity:1;stroke-width:0.067907;paint-order:markers fill stroke"
           id="circle1213"
           cx="164.08929"
           cy="52.448814"
           rx="0.84999317"
           ry="0.85000002" />
        <ellipse
           style="fill:#f7bd13;fill-opacity:1;stroke-width:0.067907;paint-order:markers fill stroke"
           id="circle1219"
           cx="166.62926"
           cy="52.448814"
           rx="0.84999317"
           ry="0.85000002" />
        <ellipse
           style="fill:#f7bd13;fill-opacity:1;stroke-width:0.067907;paint-order:markers fill stroke"
           id="circle1225"
           cx="169.16922"
           cy="52.448814"
           rx="0.84999317"
           ry="0.85000002" />
        <ellipse
           style="fill:#f7bd13;fill-opacity:1;stroke-width:0.067907;paint-order:markers fill stroke"
           id="circle1231"
           cx="171.70915"
           cy="52.448814"
           rx="0.84999317"
           ry="0.85000002" />
        <ellipse
           style="fill:#f7bd13;fill-opacity:1;stroke-width:0.067907;paint-order:markers fill stroke"
           id="circle1237"
           cx="174.24913"
           cy="52.448814"
           rx="0.84999317"
           ry="0.85000002" />
        <ellipse
           style="fill:#f7bd13;fill-opacity:1;stroke-width:0.067907;paint-order:markers fill stroke"
           id="circle1243"
           cx="176.78909"
           cy="52.448814"
           rx="0.84999317"
           ry="0.85000002" />
        <ellipse
           style="fill:#f7bd13;fill-opacity:1;stroke-width:0.067907;paint-order:markers fill stroke"
           id="circle1249"
           cx="179.32904"
           cy="52.448814"
           rx="0.84999317"
           ry="0.85000002" />
        <ellipse
           style="fill:#f7bd13;fill-opacity:1;stroke-width:0.067907;paint-order:markers fill stroke"
           id="circle1255"
           cx="181.86899"
           cy="52.448814"
           rx="0.84999317"
           ry="0.85000002" />
        <ellipse
           style="fill:#f7bd13;fill-opacity:1;stroke-width:0.067907;paint-order:markers fill stroke"
           id="circle1261"
           cx="184.40895"
           cy="52.448814"
           rx="0.84999317"
           ry="0.85000002" />
        <ellipse
           style="fill:#f7bd13;fill-opacity:1;stroke-width:0.067907;paint-order:markers fill stroke"
           id="circle1267"
           cx="186.9489"
           cy="52.448814"
           rx="0.84999317"
           ry="0.85000002" />
        <ellipse
           style="fill:#f7bd13;fill-opacity:1;stroke-width:0.067907;paint-order:markers fill stroke"
           id="circle1273"
           cx="189.48886"
           cy="52.448814"
           rx="0.84999317"
           ry="0.85000002" />
        <ellipse
           style="fill:#f7bd13;fill-opacity:1;stroke-width:0.067907;paint-order:markers fill stroke"
           id="circle1279"
           cx="192.02881"
           cy="52.448814"
           rx="0.84999317"
           ry="0.85000002" />
        <ellipse
           style="fill:#f7bd13;fill-opacity:1;stroke-width:0.067907;paint-order:markers fill stroke"
           id="circle1285"
           cx="194.56877"
           cy="52.448814"
           rx="0.84999317"
           ry="0.85000002" />
        <ellipse
           style="fill:#f7bd13;fill-opacity:1;stroke-width:0.067907;paint-order:markers fill stroke"
           id="circle1291"
           cx="197.10873"
           cy="52.448814"
           rx="0.84999317"
           ry="0.85000002" />
        <ellipse
           style="fill:#f7bd13;fill-opacity:1;stroke-width:0.067907;paint-order:markers fill stroke"
           id="circle1297"
           cx="199.64868"
           cy="52.448814"
           rx="0.84999317"
           ry="0.85000002" />
        <ellipse
           style="fill:#f7bd13;fill-opacity:1;stroke-width:0.067907;paint-order:markers fill stroke"
           id="circle1304"
           cx="202.18864"
           cy="52.448814"
           rx="0.84999317"
           ry="0.85000002" />
        <ellipse
           style="fill:#f7bd13;fill-opacity:1;stroke-width:0.067907;paint-order:markers fill stroke"
           id="circle1310"
           cx="204.72861"
           cy="52.448814"
           rx="0.84999317"
           ry="0.85000002" />
        <ellipse
           style="fill:#f7bd13;fill-opacity:1;stroke-width:0.067907;paint-order:markers fill stroke"
           id="circle1316"
           cx="207.26855"
           cy="52.448814"
           rx="0.84999317"
           ry="0.85000002" />
        <ellipse
           style="fill:#f7bd13;fill-opacity:1;stroke-width:0.067907;paint-order:markers fill stroke"
           id="circle1322"
           cx="159.00938"
           cy="80.388321"
           rx="0.84999317"
           ry="0.85000002" />
        <ellipse
           style="fill:#f7bd13;fill-opacity:1;stroke-width:0.067907;paint-order:markers fill stroke"
           id="circle1328"
           cx="161.54935"
           cy="80.388321"
           rx="0.84999317"
           ry="0.85000002" />
        <ellipse
           style="fill:#f7bd13;fill-opacity:1;stroke-width:0.067907;paint-order:markers fill stroke"
           id="circle1334"
           cx="164.08929"
           cy="80.388321"
           rx="0.84999317"
           ry="0.85000002" />
        <ellipse
           style="fill:#f7bd13;fill-opacity:1;stroke-width:0.067907;paint-order:markers fill stroke"
           id="circle1340"
           cx="166.62926"
           cy="80.388321"
           rx="0.84999317"
           ry="0.85000002" />
        <ellipse
           style="fill:#f7bd13;fill-opacity:1;stroke-width:0.067907;paint-order:markers fill stroke"
           id="circle1346"
           cx="169.16922"
           cy="80.388321"
           rx="0.84999317"
           ry="0.85000002" />
        <ellipse
           style="fill:#f7bd13;fill-opacity:1;stroke-width:0.067907;paint-order:markers fill stroke"
           id="circle1352"
           cx="171.70915"
           cy="80.388321"
           rx="0.84999317"
           ry="0.85000002" />
        <ellipse
           style="fill:#f7bd13;fill-opacity:1;stroke-width:0.067907;paint-order:markers fill stroke"
           id="circle1358"
           cx="174.24913"
           cy="80.388321"
           rx="0.84999317"
           ry="0.85000002" />
        <ellipse
           style="fill:#f7bd13;fill-opacity:1;stroke-width:0.067907;paint-order:markers fill stroke"
           id="circle1364"
           cx="176.78909"
           cy="80.388321"
           rx="0.84999317"
           ry="0.85000002" />
        <ellipse
           style="fill:#f7bd13;fill-opacity:1;stroke-width:0.067907;paint-order:markers fill stroke"
           id="circle1370"
           cx="179.32904"
           cy="80.388321"
           rx="0.84999317"
           ry="0.85000002" />
        <ellipse
           style="fill:#f7bd13;fill-opacity:1;stroke-width:0.067907;paint-order:markers fill stroke"
           id="circle1376"
           cx="181.86899"
           cy="80.388321"
           rx="0.84999317"
           ry="0.85000002" />
        <ellipse
           style="fill:#f7bd13;fill-opacity:1;stroke-width:0.067907;paint-order:markers fill stroke"
           id="circle1382"
           cx="184.40895"
           cy="80.388321"
           rx="0.84999317"
           ry="0.85000002" />
        <ellipse
           style="fill:#f7bd13;fill-opacity:1;stroke-width:0.067907;paint-order:markers fill stroke"
           id="circle1388"
           cx="186.9489"
           cy="80.388321"
           rx="0.84999317"
           ry="0.85000002" />
        <ellipse
           style="fill:#f7bd13;fill-opacity:1;stroke-width:0.067907;paint-order:markers fill stroke"
           id="circle1394"
           cx="189.48886"
           cy="80.388321"
           rx="0.84999317"
           ry="0.85000002" />
        <ellipse
           style="fill:#f7bd13;fill-opacity:1;stroke-width:0.067907;paint-order:markers fill stroke"
           id="circle1401"
           cx="192.02881"
           cy="80.388321"
           rx="0.84999317"
           ry="0.85000002" />
        <ellipse
           style="fill:#f7bd13;fill-opacity:1;stroke-width:0.067907;paint-order:markers fill stroke"
           id="circle1407"
           cx="194.56877"
           cy="80.388321"
           rx="0.84999317"
           ry="0.85000002" />
        <ellipse
           style="fill:#f7bd13;fill-opacity:1;stroke-width:0.067907;paint-order:markers fill stroke"
           id="circle1413"
           cx="197.10873"
           cy="80.388321"
           rx="0.84999317"
           ry="0.85000002" />
        <ellipse
           style="fill:#f7bd13;fill-opacity:1;stroke-width:0.067907;paint-order:markers fill stroke"
           id="circle1420"
           cx="199.64868"
           cy="80.388321"
           rx="0.84999317"
           ry="0.85000002" />
        <ellipse
           style="fill:#f7bd13;fill-opacity:1;stroke-width:0.067907;paint-order:markers fill stroke"
           id="circle1426"
           cx="202.18864"
           cy="80.388321"
           rx="0.84999317"
           ry="0.85000002" />
        <ellipse
           style="fill:#f7bd13;fill-opacity:1;stroke-width:0.067907;paint-order:markers fill stroke"
           id="circle1432"
           cx="204.72861"
           cy="80.388321"
           rx="0.84999317"
           ry="0.85000002" />
        <ellipse
           style="fill:#f7bd13;fill-opacity:1;stroke-width:0.067907;paint-order:markers fill stroke"
           id="circle1438"
           cx="207.26855"
           cy="80.388321"
           rx="0.84999317"
           ry="0.85000002" />
        <ellipse
           style="fill:#f7bd13;fill-opacity:1;stroke-width:0.067907;paint-order:markers fill stroke"
           id="circle1688"
           cx="209.8084"
           cy="80.388321"
           rx="0.84999317"
           ry="0.85000002" />
        <ellipse
           style="fill:#f7bd13;fill-opacity:1;stroke-width:0.067907;paint-order:markers fill stroke"
           id="circle1694"
           cx="164.08929"
           cy="54.888317"
           rx="0.84999317"
           ry="0.85000002" />
        <ellipse
           style="fill:#f7bd13;fill-opacity:1;stroke-width:0.0439398;paint-order:markers fill stroke"
           id="circle10511"
           cx="162.54437"
           cy="72.814987"
           rx="0.5499956"
           ry="0.55000001" />
        <ellipse
           style="fill:#f7bd13;fill-opacity:1;stroke-width:0.0439398;paint-order:markers fill stroke"
           id="circle10517"
           cx="162.54437"
           cy="74.114845"
           rx="0.5499956"
           ry="0.55000001" />
        <ellipse
           style="fill:#f7bd13;fill-opacity:1;stroke-width:0.0439398;paint-order:markers fill stroke"
           id="circle10523"
           cx="162.54437"
           cy="75.414703"
           rx="0.5499956"
           ry="0.55000001" />
        <ellipse
           style="fill:#f7bd13;fill-opacity:1;stroke-width:0.0439398;paint-order:markers fill stroke"
           id="circle10529"
           cx="162.54437"
           cy="76.714561"
           rx="0.5499956"
           ry="0.55000001" />
      </g>
    </g>
  </g>
</svg>
